<svg width="55" height="55" viewBox="0 0 55 55" fill="none" xmlns="http://www.w3.org/2000/svg">
<path d="M6.01562 53.2812H9.45312C9.92813 53.2812 10.3125 52.8965 10.3125 52.4219V46.4062H30.9375V52.4219C30.9375 52.8965 31.3219 53.2812 31.7969 53.2812H39.5312H44.6875H52.4219C52.8969 53.2812 53.2812 52.8965 53.2812 52.4219V39.5312C53.2812 39.3034 53.1906 39.0848 53.0295 38.9236L51.5625 37.4567V30.0781V2.57812C51.5625 2.10354 51.1781 1.71875 50.7031 1.71875H6.01562C3.64647 1.71875 1.71875 3.64647 1.71875 6.01562V48.9844C1.71875 51.3535 3.64647 53.2812 6.01562 53.2812V53.2812ZM40.3906 51.5625V42.9688H43.8281V51.5625H40.3906ZM51.5625 51.5625H45.5469V42.1094C45.5469 41.6348 45.1625 41.25 44.6875 41.25H39.5312C39.0562 41.25 38.6719 41.6348 38.6719 42.1094V51.5625H32.6562V39.8871L42.1094 30.434L45.7986 34.1232C46.0454 34.3695 46.4146 34.443 46.7352 34.3095C47.0567 34.1765 47.2656 33.8631 47.2656 33.5156V30.9375H49.8438V37.8125C49.8438 38.0404 49.9344 38.259 50.0955 38.4201L51.5625 39.8871V51.5625ZM6.01562 3.4375H49.8438V29.2188H46.4062C45.9312 29.2188 45.5469 29.6035 45.5469 30.0781V31.441L42.717 28.6111C42.3813 28.2755 41.8375 28.2755 41.5018 28.6111L31.1893 38.9236C31.0281 39.0848 30.9375 39.3034 30.9375 39.5312V44.6875H10.3125V9.45312C10.3125 8.97854 9.92813 8.59375 9.45312 8.59375H6.01562C4.59396 8.59375 3.4375 7.43729 3.4375 6.01562C3.4375 4.59396 4.59396 3.4375 6.01562 3.4375V3.4375ZM3.4375 9.45103C4.15589 9.99149 5.04883 10.3125 6.01562 10.3125H8.59375V51.5625H6.01562C4.59396 51.5625 3.4375 50.406 3.4375 48.9844V9.45103Z" fill="#441D06"/>
<path d="M13.75 36.9531H18.9062C19.3813 36.9531 19.7656 36.5683 19.7656 36.0938C19.7656 34.9734 20.484 34.0175 21.4844 33.6629V36.0938C21.4844 36.5683 21.8687 36.9531 22.3438 36.9531H28.3594C28.8344 36.9531 29.2188 36.5683 29.2188 36.0938V24.9219H46.4062C46.8813 24.9219 47.2656 24.5371 47.2656 24.0625V6.875C47.2656 6.40041 46.8813 6.01562 46.4062 6.01562H13.75C13.275 6.01562 12.8906 6.40041 12.8906 6.875V36.0938C12.8906 36.5683 13.275 36.9531 13.75 36.9531ZM45.5469 23.2031H35.2344V21.4844H37.8125C38.2875 21.4844 38.6719 21.0996 38.6719 20.625C38.6719 18.55 37.1931 16.8136 35.2344 16.4146V7.73438H45.5469V23.2031ZM24.0625 7.73438V16.3281H23.2031V18.0469H24.9219C25.3969 18.0469 25.7812 17.6621 25.7812 17.1875V7.73438H33.5156V17.1875C33.5156 17.6621 33.9 18.0469 34.375 18.0469C35.4954 18.0469 36.4513 18.7653 36.8063 19.7656H34.375C33.9 19.7656 33.5156 20.1504 33.5156 20.625V23.2031H28.3594C27.8844 23.2031 27.5 23.5879 27.5 24.0625V35.2344H23.2031V32.6562C23.2031 32.1817 22.8188 31.7969 22.3438 31.7969C20.2683 31.7969 18.5328 33.2756 18.1333 35.2344H14.6094V18.0469H20.625V16.3281H14.6094V7.73438H24.0625Z" fill="#441D06"/>
<path d="M12.0312 41.25H13.75V42.9688H12.0312V41.25Z" fill="#441D06"/>
<path d="M15.4688 41.25H17.1875V42.9688H15.4688V41.25Z" fill="#441D06"/>
<path d="M18.9062 41.25H20.625V42.9688H18.9062V41.25Z" fill="#441D06"/>
</svg>
