<svg width="55" height="55" viewBox="0 0 55 55" fill="none" xmlns="http://www.w3.org/2000/svg">
<path d="M54.1401 48.9844H0.862305C0.38707 48.9844 0.00292969 48.6002 0.00292969 48.125C0.00292969 47.6498 0.38707 47.2656 0.862305 47.2656H54.1401C54.6153 47.2656 54.9995 47.6498 54.9995 48.125C54.9995 48.6002 54.6153 48.9844 54.1401 48.9844Z" fill="#441D06"/>
<path d="M54.1396 48.9844C53.6644 48.9844 53.2803 48.6003 53.2803 48.1251V21.4741C53.2803 20.9989 53.6644 20.6147 54.1396 20.6147C54.6149 20.6147 54.999 20.9989 54.999 21.4741V48.1251C54.999 48.6003 54.6149 48.9844 54.1396 48.9844Z" fill="#441D06"/>
<path d="M36.9521 48.9844C36.4769 48.9844 36.0928 48.6003 36.0928 48.1251V21.4741C36.0928 20.9989 36.4769 20.6147 36.9521 20.6147C37.4274 20.6147 37.8115 20.9989 37.8115 21.4741V48.1251C37.8115 48.6003 37.4274 48.9844 36.9521 48.9844Z" fill="#441D06"/>
<path d="M18.0479 48.9844C17.5726 48.9844 17.1885 48.6003 17.1885 48.1251V21.4741C17.1885 20.9989 17.5726 20.6147 18.0479 20.6147C18.5231 20.6147 18.9072 20.9989 18.9072 21.4741V48.1251C18.9072 48.6003 18.5231 48.9844 18.0479 48.9844Z" fill="#441D06"/>
<path d="M0.860351 48.9844C0.385117 48.9844 0.000976562 48.6003 0.000976562 48.1251V21.4741C0.000976562 20.9989 0.385117 20.6147 0.860351 20.6147C1.33559 20.6147 1.71973 20.9989 1.71973 21.4741V48.1251C1.71973 48.6003 1.33559 48.9844 0.860351 48.9844Z" fill="#441D06"/>
<path d="M54.1398 22.3335H52.4219C51.9466 22.3335 51.5625 21.9494 51.5625 21.4741C51.5625 20.9989 51.9466 20.6147 52.4219 20.6147H54.1398C54.615 20.6147 54.9991 20.9989 54.9991 21.4741C54.9991 21.9494 54.615 22.3335 54.1398 22.3335Z" fill="#441D06"/>
<path d="M2.57922 22.3335H0.861328C0.386094 22.3335 0.00195312 21.9494 0.00195312 21.4741C0.00195312 20.9989 0.386094 20.6147 0.861328 20.6147H2.57922C3.05445 20.6147 3.43859 20.9989 3.43859 21.4741C3.43859 21.9494 3.05445 22.3335 2.57922 22.3335Z" fill="#441D06"/>
<path d="M38.6718 22.3335H35.2334C34.7582 22.3335 34.374 21.9494 34.374 21.4741C34.374 20.9989 34.7582 20.6147 35.2334 20.6147H38.6718C39.147 20.6147 39.5311 20.9989 39.5311 21.4741C39.5311 21.9494 39.147 22.3335 38.6718 22.3335Z" fill="#441D06"/>
<path d="M19.7684 22.3335H16.3301C15.8548 22.3335 15.4707 21.9494 15.4707 21.4741C15.4707 20.9989 15.8548 20.6147 16.3301 20.6147H19.7684C20.2437 20.6147 20.6278 20.9989 20.6278 21.4741C20.6278 21.9494 20.2437 22.3335 19.7684 22.3335Z" fill="#441D06"/>
<path d="M40.3926 42.1044C39.9173 42.1044 39.5332 41.7203 39.5332 41.245V26.6494C39.5332 26.1742 39.9173 25.79 40.3926 25.79C40.8678 25.79 41.252 26.1742 41.252 26.6494V41.245C41.252 41.7203 40.8678 42.1044 40.3926 42.1044Z" fill="#441D06"/>
<path d="M40.3916 27.5088C39.9164 27.5088 39.5322 27.1246 39.5322 26.6494C39.5322 25.228 40.6898 24.0713 42.1112 24.0713C42.5864 24.0713 42.9706 24.4554 42.9706 24.9307C42.9706 25.4059 42.5864 25.79 42.1112 25.79C41.6368 25.79 41.251 26.175 41.251 26.6494C41.251 27.1246 40.8668 27.5088 40.3916 27.5088Z" fill="#441D06"/>
<path d="M43.8301 45.542C42.682 45.542 41.6026 45.0951 40.7913 44.2847C39.9801 43.4735 39.5323 42.3941 39.5332 41.2451C39.5332 40.7699 39.9182 40.3857 40.3926 40.3857C40.8678 40.3857 41.252 40.7707 41.252 41.2451C41.252 41.9352 41.5201 42.5832 42.0065 43.0687C42.4929 43.5551 43.14 43.8232 43.8301 43.8232C44.3053 43.8232 44.6895 44.2074 44.6895 44.6826C44.6895 45.1579 44.3053 45.542 43.8301 45.542Z" fill="#441D06"/>
<path d="M50.7031 42.1044C50.2279 42.1044 49.8438 41.7203 49.8438 41.245V26.6494C49.8438 26.1742 50.2279 25.79 50.7031 25.79C51.1784 25.79 51.5625 26.1742 51.5625 26.6494V41.245C51.5625 41.7203 51.1784 42.1044 50.7031 42.1044Z" fill="#441D06"/>
<path d="M50.7031 27.5088C50.2279 27.5088 49.8438 27.1246 49.8438 26.6494C49.8438 26.175 49.4588 25.79 48.9844 25.79C48.5091 25.79 48.125 25.4059 48.125 24.9307C48.125 24.4554 48.5091 24.0713 48.9844 24.0713C50.4058 24.0713 51.5625 25.228 51.5625 26.6494C51.5625 27.1246 51.1784 27.5088 50.7031 27.5088Z" fill="#441D06"/>
<path d="M47.2646 45.542C46.7894 45.542 46.4053 45.1579 46.4053 44.6826C46.4053 44.2074 46.7894 43.8232 47.2646 43.8232C48.6861 43.8232 49.8436 42.6665 49.8436 41.2451C49.8436 40.7699 50.2278 40.3857 50.703 40.3857C51.1782 40.3857 51.5624 40.7699 51.5624 41.2451C51.5624 43.6144 49.6348 45.542 47.2646 45.542Z" fill="#441D06"/>
<path d="M48.9846 25.79H42.1113C41.6361 25.79 41.252 25.4059 41.252 24.9307C41.252 24.4554 41.6361 24.0713 42.1113 24.0713H48.9846C49.4598 24.0713 49.844 24.4554 49.844 24.9307C49.844 25.4059 49.4598 25.79 48.9846 25.79Z" fill="#441D06"/>
<path d="M48.1423 36.9518C48.138 36.9527 48.1311 36.9518 48.1251 36.9518H42.9697C42.7411 36.9518 42.5229 36.8616 42.3621 36.7001C42.2014 36.5385 42.1104 36.3202 42.1104 36.0925L42.1112 28.3667C42.1112 27.8915 42.4962 27.5073 42.9706 27.5073H48.1243C48.5986 27.5073 48.9836 27.8915 48.9836 28.3667L48.9845 35.9206C48.9957 35.9756 49.0017 36.034 49.0017 36.0925C49.0017 36.5677 48.6167 36.9518 48.1423 36.9518ZM43.8291 35.2331H47.2657L47.2649 29.2261H43.83L43.8291 35.2331Z" fill="#441D06"/>
<path d="M48.9842 39.5298C48.6241 39.5298 48.2889 39.3021 48.1695 38.942L47.3101 36.3639C47.1597 35.9136 47.4029 35.4263 47.8532 35.2768C48.3061 35.1255 48.7908 35.3696 48.9404 35.8199L49.7997 38.398C49.9501 38.8483 49.7069 39.3356 49.2566 39.4851C49.1655 39.5152 49.0736 39.5298 48.9842 39.5298Z" fill="#441D06"/>
<path d="M42.1101 39.5297C42.0207 39.5297 41.9287 39.5151 41.8385 39.485C41.3891 39.3355 41.145 38.8491 41.2954 38.3979L42.1548 35.8198C42.3052 35.3703 42.7864 35.1254 43.2419 35.2767C43.6913 35.4262 43.9354 35.9126 43.785 36.3638L42.9256 38.9419C42.8053 39.302 42.4702 39.5297 42.1101 39.5297Z" fill="#441D06"/>
<path d="M45.5467 40.3892C43.4558 40.3883 42.2063 40.1021 41.6116 39.4885C41.273 39.1388 41.2463 38.7813 41.2515 38.6438C41.2661 38.1788 41.6477 37.811 42.1092 37.811C42.1186 37.811 42.1272 37.811 42.1367 37.8119C42.477 37.8222 42.7649 38.0293 42.8955 38.3206C43.0708 38.4143 43.717 38.6696 45.5467 38.6704C47.3771 38.6704 48.0234 38.4152 48.1987 38.3215C48.3285 38.0293 48.6163 37.8222 48.9575 37.8119C48.967 37.811 48.9756 37.811 48.985 37.811C49.4465 37.811 49.8281 38.1788 49.8427 38.6438C49.8478 38.7813 49.8212 39.1396 49.4817 39.4894C48.887 40.103 47.6367 40.3892 45.5467 40.3892Z" fill="#441D06"/>
<path d="M47.265 45.542H43.8301C43.3548 45.542 42.9707 45.1579 42.9707 44.6826C42.9707 44.2074 43.3548 43.8232 43.8301 43.8232H47.265C47.7402 43.8232 48.1244 44.2074 48.1244 44.6826C48.1244 45.1579 47.7402 45.542 47.265 45.542Z" fill="#441D06"/>
<path d="M51.5625 36.9517H50.7031C50.2279 36.9517 49.8438 36.5675 49.8438 36.0923C49.8438 35.6171 50.2279 35.2329 50.7031 35.2329H51.5625C52.0377 35.2329 52.4219 35.6171 52.4219 36.0923C52.4219 36.5675 52.0377 36.9517 51.5625 36.9517Z" fill="#441D06"/>
<path d="M40.3916 36.9517H39.5322C39.057 36.9517 38.6729 36.5675 38.6729 36.0923C38.6729 35.6171 39.057 35.2329 39.5322 35.2329H40.3916C40.8668 35.2329 41.251 35.6171 41.251 36.0923C41.251 36.5675 40.8668 36.9517 40.3916 36.9517Z" fill="#441D06"/>
<path d="M42.9714 29.226C42.6939 29.226 42.4206 29.092 42.2556 28.8436L40.2816 25.8848C40.0178 25.4903 40.1243 24.9567 40.5196 24.6928C40.9124 24.4299 41.4478 24.5356 41.7116 24.9309L43.6856 27.8897C43.9494 28.2842 43.8428 28.8178 43.4475 29.0817C43.3014 29.1788 43.1347 29.226 42.9714 29.226Z" fill="#441D06"/>
<path d="M48.1246 29.2243C47.9614 29.2243 47.7946 29.1771 47.6485 29.0799C47.2532 28.8161 47.1467 28.2824 47.4105 27.888L49.3845 24.9309C49.6483 24.5356 50.182 24.4299 50.5764 24.6928C50.9717 24.9567 51.0783 25.4903 50.8145 25.8848L48.8405 28.8419C48.6746 29.0903 48.4022 29.2243 48.1246 29.2243Z" fill="#441D06"/>
<path d="M22.3447 24.0487C21.8695 24.0487 21.4854 23.6646 21.4854 23.1894V8.59375C21.4854 8.11852 21.8695 7.73438 22.3447 7.73438C22.82 7.73438 23.2041 8.11852 23.2041 8.59375V23.1894C23.2041 23.6646 22.82 24.0487 22.3447 24.0487Z" fill="#441D06"/>
<path d="M22.3438 9.45141C21.8685 9.45141 21.4844 9.06726 21.4844 8.59203C21.4844 7.17148 22.642 6.01562 24.0634 6.01562C24.5386 6.01562 24.9227 6.39977 24.9227 6.875C24.9227 7.35023 24.5386 7.73437 24.0634 7.73437C23.589 7.73437 23.2031 8.11852 23.2031 8.59203C23.2031 9.06726 22.819 9.45141 22.3438 9.45141Z" fill="#441D06"/>
<path d="M25.7822 27.4863C24.6341 27.4863 23.5547 27.0395 22.7435 26.2282C21.9322 25.417 21.4845 24.3376 21.4854 23.1895C21.4854 22.7142 21.8704 22.3301 22.3447 22.3301C22.82 22.3301 23.2041 22.7151 23.2041 23.1895C23.2041 23.8787 23.4722 24.5266 23.9586 25.013C24.445 25.4995 25.093 25.7676 25.7822 25.7676C26.2575 25.7676 26.6416 26.1517 26.6416 26.627C26.6416 27.1022 26.2575 27.4863 25.7822 27.4863Z" fill="#441D06"/>
<path d="M32.6553 24.049C32.18 24.049 31.7959 23.6649 31.7959 23.1896V8.59229C31.7959 8.11705 32.18 7.73291 32.6553 7.73291C33.1305 7.73291 33.5146 8.11705 33.5146 8.59229V23.1896C33.5146 23.6649 33.1305 24.049 32.6553 24.049Z" fill="#441D06"/>
<path d="M32.6553 9.45141C32.18 9.45141 31.7959 9.06726 31.7959 8.59203C31.7959 8.11852 31.4109 7.73437 30.9365 7.73437C30.4613 7.73437 30.0771 7.35023 30.0771 6.875C30.0771 6.39977 30.4613 6.01562 30.9365 6.01562C32.3579 6.01562 33.5146 7.17148 33.5146 8.59203C33.5146 9.06726 33.1305 9.45141 32.6553 9.45141Z" fill="#441D06"/>
<path d="M29.2168 27.4863C28.7416 27.4863 28.3574 27.1022 28.3574 26.627C28.3574 26.1517 28.7416 25.7676 29.2168 25.7676C30.6382 25.7676 31.7958 24.6109 31.7958 23.1895C31.7958 22.7142 32.1799 22.3301 32.6552 22.3301C33.1304 22.3301 33.5145 22.7142 33.5145 23.1895C33.5145 25.5587 31.587 27.4863 29.2168 27.4863Z" fill="#441D06"/>
<path d="M30.9368 7.73438H24.0635C23.5882 7.73438 23.2041 7.35023 23.2041 6.875C23.2041 6.39977 23.5882 6.01562 24.0635 6.01562H30.9368C31.412 6.01562 31.7961 6.39977 31.7961 6.875C31.7961 7.35023 31.412 7.73438 30.9368 7.73438Z" fill="#441D06"/>
<path d="M24.9219 18.8962C24.6933 18.8962 24.475 18.806 24.3143 18.6444C24.1536 18.4828 24.0625 18.2654 24.0625 18.0368L24.0634 10.311C24.0634 9.8358 24.4484 9.45166 24.9227 9.45166H30.0764C30.5508 9.45166 30.9358 9.8358 30.9358 10.311L30.9366 18.0351C30.9366 18.5095 30.5525 18.8945 30.0773 18.8945L24.9219 18.8962ZM25.7821 11.1704L25.7813 17.1774L29.2179 17.1757L29.217 11.1704H25.7821Z" fill="#441D06"/>
<path d="M30.9363 21.4723C30.5763 21.4723 30.2411 21.2446 30.1216 20.8845L29.2623 18.3064C29.1119 17.8561 29.3551 17.3688 29.8054 17.2193C30.2583 17.0689 30.743 17.3121 30.8925 17.7624L31.7519 20.3405C31.9023 20.7909 31.6591 21.2781 31.2088 21.4277C31.1177 21.4586 31.0266 21.4723 30.9363 21.4723Z" fill="#441D06"/>
<path d="M24.0622 21.4722C23.9729 21.4722 23.8809 21.4576 23.7907 21.4275C23.3412 21.2771 23.0971 20.7907 23.2475 20.3404L24.1069 17.764C24.2573 17.3145 24.7386 17.0687 25.194 17.2209C25.6435 17.3712 25.8875 17.8577 25.7372 18.308L24.8778 20.8844C24.7575 21.2453 24.4223 21.4722 24.0622 21.4722Z" fill="#441D06"/>
<path d="M27.4988 22.3313C25.4097 22.3313 24.1593 22.0452 23.5646 21.4316C23.2251 21.0818 23.1985 20.7235 23.2037 20.586C23.2191 20.1116 23.6162 19.724 24.0888 19.7541C24.4291 19.7644 24.717 19.9715 24.8476 20.2637C25.0229 20.3574 25.6683 20.6126 27.4988 20.6126C29.3293 20.6126 29.9755 20.3574 30.1508 20.2637C30.2806 19.9715 30.5685 19.7644 30.9097 19.7541C31.3668 19.7274 31.7811 20.1116 31.7957 20.586C31.8 20.7235 31.7733 21.0818 31.4339 21.4316C30.8392 22.0452 29.5888 22.3313 27.4988 22.3313Z" fill="#441D06"/>
<path d="M29.2171 27.4863H25.7822C25.307 27.4863 24.9229 27.1022 24.9229 26.627C24.9229 26.1517 25.307 25.7676 25.7822 25.7676H29.2171C29.6924 25.7676 30.0765 26.1517 30.0765 26.627C30.0765 27.1022 29.6924 27.4863 29.2171 27.4863Z" fill="#441D06"/>
<path d="M33.5146 18.894H32.6553C32.18 18.894 31.7959 18.5099 31.7959 18.0347C31.7959 17.5594 32.18 17.1753 32.6553 17.1753H33.5146C33.9899 17.1753 34.374 17.5594 34.374 18.0347C34.374 18.5099 33.9899 18.894 33.5146 18.894Z" fill="#441D06"/>
<path d="M22.3438 18.894H21.4844C21.0091 18.894 20.625 18.5099 20.625 18.0347C20.625 17.5594 21.0091 17.1753 21.4844 17.1753H22.3438C22.819 17.1753 23.2031 17.5594 23.2031 18.0347C23.2031 18.5099 22.819 18.894 22.3438 18.894Z" fill="#441D06"/>
<path d="M24.9236 11.1704C24.646 11.1704 24.3727 11.0363 24.2077 10.788L22.2337 7.82743C21.9699 7.43212 22.0765 6.8993 22.4718 6.63548C22.8671 6.37251 23.3999 6.47907 23.6637 6.87352L25.6377 9.83407C25.9015 10.2294 25.795 10.7622 25.3997 11.026C25.2527 11.1231 25.0869 11.1704 24.9236 11.1704Z" fill="#441D06"/>
<path d="M30.0768 11.1687C29.9135 11.1687 29.7468 11.1214 29.6007 11.0243C29.2054 10.7605 29.0988 10.2268 29.3626 9.83235L31.3366 6.87352C31.5996 6.47907 32.1333 6.37251 32.5286 6.63548C32.9239 6.8993 33.0305 7.43298 32.7666 7.82743L30.7926 10.7863C30.6276 11.0346 30.3544 11.1687 30.0768 11.1687Z" fill="#441D06"/>
<path d="M4.30078 42.1044C3.82555 42.1044 3.44141 41.7203 3.44141 41.245V26.6494C3.44141 26.1742 3.82555 25.79 4.30078 25.79C4.77602 25.79 5.16016 26.1742 5.16016 26.6494V41.245C5.16016 41.7203 4.77602 42.1044 4.30078 42.1044Z" fill="#441D06"/>
<path d="M4.29981 27.5088C3.82457 27.5088 3.44043 27.1246 3.44043 26.6494C3.44043 25.228 4.59801 24.0713 6.01942 24.0713C6.49465 24.0713 6.87879 24.4554 6.87879 24.9307C6.87879 25.4059 6.49465 25.79 6.01942 25.79C5.54504 25.79 5.15918 26.175 5.15918 26.6494C5.15918 27.1246 4.77504 27.5088 4.29981 27.5088Z" fill="#441D06"/>
<path d="M7.73828 45.542C6.59016 45.542 5.51078 45.0951 4.69953 44.2847C3.88828 43.4735 3.44055 42.3941 3.44141 41.2451C3.44141 40.7699 3.82641 40.3857 4.30078 40.3857C4.77602 40.3857 5.16016 40.7707 5.16016 41.2451C5.16016 41.9352 5.42828 42.5832 5.91469 43.0687C6.40109 43.5551 7.0482 43.8232 7.73828 43.8232C8.21352 43.8232 8.59766 44.2074 8.59766 44.6826C8.59766 45.1579 8.21352 45.542 7.73828 45.542Z" fill="#441D06"/>
<path d="M14.6113 42.1044C14.1361 42.1044 13.752 41.7203 13.752 41.245V26.6494C13.752 26.1742 14.1361 25.79 14.6113 25.79C15.0866 25.79 15.4707 26.1742 15.4707 26.6494V41.245C15.4707 41.7203 15.0866 42.1044 14.6113 42.1044Z" fill="#441D06"/>
<path d="M14.6113 27.5088C14.1361 27.5088 13.752 27.1246 13.752 26.6494C13.752 26.175 13.367 25.79 12.8926 25.79C12.4173 25.79 12.0332 25.4059 12.0332 24.9307C12.0332 24.4554 12.4173 24.0713 12.8926 24.0713C14.314 24.0713 15.4707 25.228 15.4707 26.6494C15.4707 27.1246 15.0866 27.5088 14.6113 27.5088Z" fill="#441D06"/>
<path d="M11.1729 45.542C10.6976 45.542 10.3135 45.1579 10.3135 44.6826C10.3135 44.2074 10.6976 43.8232 11.1729 43.8232C12.5943 43.8232 13.7518 42.6665 13.7518 41.2451C13.7518 40.7699 14.136 40.3857 14.6112 40.3857C15.0864 40.3857 15.4706 40.7699 15.4706 41.2451C15.4706 43.6144 13.543 45.542 11.1729 45.542Z" fill="#441D06"/>
<path d="M12.8928 25.79H6.01953C5.5443 25.79 5.16016 25.4059 5.16016 24.9307C5.16016 24.4554 5.5443 24.0713 6.01953 24.0713H12.8928C13.368 24.0713 13.7522 24.4554 13.7522 24.9307C13.7522 25.4059 13.368 25.79 12.8928 25.79Z" fill="#441D06"/>
<path d="M12.0496 36.9518C12.0462 36.9527 12.0393 36.9518 12.0325 36.9518H6.87793C6.64934 36.9518 6.43105 36.8616 6.27035 36.7001C6.10965 36.5385 6.01855 36.3202 6.01855 36.0925L6.01941 28.3667C6.01941 27.8915 6.40441 27.5073 6.87879 27.5073H12.0325C12.5068 27.5073 12.8918 27.8915 12.8918 28.3667L12.8927 35.9206C12.9039 35.9756 12.9099 36.034 12.9099 36.0925C12.909 36.5677 12.5249 36.9518 12.0496 36.9518ZM7.73731 35.2331H11.1739L11.1731 29.2261H7.73816L7.73731 35.2331Z" fill="#441D06"/>
<path d="M12.8924 39.5298C12.5323 39.5298 12.1972 39.3021 12.0777 38.942L11.2183 36.3639C11.0679 35.9136 11.3111 35.4263 11.7614 35.2768C12.2152 35.1255 12.6982 35.3696 12.8486 35.8199L13.7079 38.398C13.8583 38.8483 13.6151 39.3356 13.1648 39.4851C13.0737 39.5152 12.9818 39.5298 12.8924 39.5298Z" fill="#441D06"/>
<path d="M6.01828 39.5297C5.9289 39.5297 5.83695 39.5151 5.74672 39.485C5.29726 39.3355 5.0532 38.8491 5.20359 38.3979L6.06297 35.8198C6.21336 35.3703 6.69547 35.1254 7.15007 35.2767C7.59953 35.4262 7.84359 35.9126 7.6932 36.3638L6.83382 38.9419C6.71351 39.302 6.37836 39.5297 6.01828 39.5297Z" fill="#441D06"/>
<path d="M9.45486 40.3892C7.364 40.3883 6.11447 40.1021 5.51978 39.4885C5.18119 39.1388 5.15455 38.7813 5.15971 38.6438C5.17431 38.1788 5.55588 37.811 6.01736 37.811C6.02682 37.811 6.03541 37.811 6.04486 37.8119C6.38517 37.8222 6.67307 38.0293 6.80369 38.3206C6.979 38.4143 7.62525 38.6696 9.45486 38.6704C11.2853 38.6704 11.9316 38.4152 12.1069 38.3215C12.2367 38.0293 12.5246 37.8222 12.8657 37.8119C12.8752 37.811 12.8838 37.811 12.8932 37.811C13.3547 37.811 13.7363 38.1788 13.7509 38.6438C13.756 38.7813 13.7294 39.1396 13.3899 39.4894C12.7953 40.103 11.5449 40.3892 9.45486 40.3892Z" fill="#441D06"/>
<path d="M11.1732 45.542H7.73828C7.26305 45.542 6.87891 45.1579 6.87891 44.6826C6.87891 44.2074 7.26305 43.8232 7.73828 43.8232H11.1732C11.6484 43.8232 12.0326 44.2074 12.0326 44.6826C12.0326 45.1579 11.6484 45.542 11.1732 45.542Z" fill="#441D06"/>
<path d="M15.4707 36.9517H14.6113C14.1361 36.9517 13.752 36.5675 13.752 36.0923C13.752 35.6171 14.1361 35.2329 14.6113 35.2329H15.4707C15.9459 35.2329 16.3301 35.6171 16.3301 36.0923C16.3301 36.5675 15.9459 36.9517 15.4707 36.9517Z" fill="#441D06"/>
<path d="M4.2998 36.9517H3.44043C2.96519 36.9517 2.58105 36.5675 2.58105 36.0923C2.58105 35.6171 2.96519 35.2329 3.44043 35.2329H4.2998C4.77504 35.2329 5.15918 35.6171 5.15918 36.0923C5.15918 36.5675 4.77504 36.9517 4.2998 36.9517Z" fill="#441D06"/>
<path d="M6.87963 29.226C6.60205 29.226 6.32877 29.092 6.16377 28.8436L4.18979 25.8848C3.92596 25.4903 4.03252 24.9567 4.42784 24.6928C4.82143 24.4299 5.35596 24.5356 5.61979 24.9309L7.59377 27.8897C7.8576 28.2842 7.75104 28.8178 7.35573 29.0817C7.20963 29.1788 7.04291 29.226 6.87963 29.226Z" fill="#441D06"/>
<path d="M12.0328 29.2243C11.8696 29.2243 11.7028 29.1771 11.5567 29.0799C11.1614 28.8161 11.0549 28.2824 11.3187 27.888L13.2927 24.9309C13.5565 24.5356 14.091 24.4299 14.4846 24.6928C14.8799 24.9567 14.9865 25.4903 14.7227 25.8848L12.7487 28.8419C12.5828 29.0903 12.3104 29.2243 12.0328 29.2243Z" fill="#441D06"/>
<path d="M27.5 45.5435C27.0248 45.5435 26.6406 45.1593 26.6406 44.6841V30.0713C26.6406 29.5961 27.0248 29.2119 27.5 29.2119C27.9752 29.2119 28.3594 29.5961 28.3594 30.0713V44.6841C28.3594 45.1593 27.9752 45.5435 27.5 45.5435Z" fill="#441D06"/>
<path d="M27.5002 45.5437C27.2802 45.5437 27.0602 45.4594 26.8926 45.2919C26.5566 44.9559 26.5566 44.4127 26.8926 44.0767L28.6114 42.358C28.9474 42.022 29.4905 42.022 29.8265 42.358C30.1626 42.694 30.1626 43.2371 29.8265 43.5731L28.1078 45.2919C27.9402 45.4594 27.7202 45.5437 27.5002 45.5437Z" fill="#441D06"/>
<path d="M27.5002 45.5437C27.2802 45.5437 27.0602 45.4594 26.8926 45.2919L25.1739 43.5731C24.8379 43.2371 24.8379 42.694 25.1739 42.358C25.5099 42.022 26.053 42.022 26.389 42.358L28.1078 44.0767C28.4438 44.4127 28.4438 44.9559 28.1078 45.2919C27.9402 45.4594 27.7202 45.5437 27.5002 45.5437Z" fill="#441D06"/>
</svg>
