<svg width="55" height="55" viewBox="0 0 55 55" fill="none" xmlns="http://www.w3.org/2000/svg">
<g clip-path="url(#clip0_325_2194)">
<path d="M13.2194 41.1908C13.17 41.1414 13.1152 41.0962 13.0562 41.0565C12.9981 41.0178 12.9358 40.9845 12.8703 40.9577C12.8059 40.9308 12.7382 40.9104 12.6694 40.8964C12.5309 40.8685 12.388 40.8685 12.2494 40.8964C12.1817 40.9104 12.1141 40.9308 12.0485 40.9577C11.9841 40.9845 11.9218 41.0178 11.8638 41.0565C11.8047 41.0962 11.7499 41.1414 11.7005 41.1908C11.4996 41.3906 11.3857 41.6677 11.3857 41.9502C11.3857 42.0201 11.3922 42.091 11.4062 42.1597C11.4201 42.2285 11.4405 42.2961 11.4674 42.3606C11.4942 42.4261 11.5275 42.4884 11.5662 42.5464C11.606 42.6055 11.6511 42.6603 11.7005 42.7097C11.7499 42.7591 11.8047 42.8042 11.8638 42.8429C11.9218 42.8816 11.9841 42.9149 12.0485 42.9417C12.1141 42.9686 12.1817 42.989 12.2494 43.003C12.3192 43.0169 12.3901 43.0245 12.46 43.0245C12.5298 43.0245 12.6007 43.0169 12.6694 43.003C12.7382 42.989 12.8059 42.9686 12.8703 42.9417C12.9358 42.9149 12.9981 42.8816 13.0562 42.8429C13.1152 42.8042 13.17 42.7591 13.2194 42.7097C13.2688 42.6603 13.314 42.6055 13.3526 42.5464C13.3913 42.4884 13.4246 42.4261 13.4515 42.3606C13.4783 42.2961 13.4987 42.2285 13.5127 42.1597C13.5267 42.091 13.5342 42.0201 13.5342 41.9502C13.5342 41.6666 13.4192 41.3906 13.2194 41.1908Z" fill="#441D06"/>
<path d="M43.2995 41.191C43.2501 41.1416 43.1953 41.0965 43.1362 41.0568C43.0782 41.0181 43.0159 40.9848 42.9515 40.9579C42.8859 40.9311 42.8183 40.9107 42.7506 40.8967C42.4015 40.8269 42.0298 40.9408 41.7806 41.191C41.5808 41.3908 41.4658 41.6669 41.4658 41.9505C41.4658 42.0203 41.4733 42.0912 41.4873 42.16C41.5013 42.2287 41.5217 42.2964 41.5485 42.3609C41.5754 42.4264 41.6087 42.4887 41.6474 42.5467C41.686 42.6058 41.7312 42.6606 41.7806 42.71C41.9804 42.9098 42.2575 43.0247 42.54 43.0247C42.6099 43.0247 42.6808 43.0172 42.7506 43.0032C42.8183 42.9893 42.8859 42.9689 42.9515 42.942C43.0159 42.9152 43.0782 42.8819 43.1362 42.8432C43.1953 42.8045 43.2501 42.7594 43.2995 42.71C43.3489 42.6606 43.394 42.6058 43.4338 42.5467C43.4725 42.4887 43.5058 42.4264 43.5326 42.3609C43.5595 42.2964 43.5799 42.2287 43.5938 42.16C43.6078 42.0912 43.6143 42.0203 43.6143 41.9505C43.6143 41.668 43.5004 41.3908 43.2995 41.191Z" fill="#441D06"/>
<path d="M23.0947 28.7007C22.5014 28.7007 22.0205 29.1816 22.0205 29.7749V34.8237C22.0205 35.417 22.5014 35.8979 23.0947 35.8979C23.688 35.8979 24.1689 35.417 24.1689 34.8237V29.7749C24.1689 29.1816 23.688 28.7007 23.0947 28.7007Z" fill="#441D06"/>
<path d="M27.5003 4.9541C24.532 4.9541 22.1172 7.36895 22.1172 10.3372C22.1172 13.3055 24.532 15.7204 27.5003 15.7204C30.4686 15.7204 32.8834 13.3055 32.8834 10.3372C32.8834 7.36895 30.4686 4.9541 27.5003 4.9541ZM27.5003 13.5719C25.7167 13.5719 24.2656 12.1209 24.2656 10.3372C24.2656 8.55359 25.7167 7.10254 27.5003 7.10254C29.2839 7.10254 30.735 8.5537 30.735 10.3372C30.735 12.1209 29.2839 13.5719 27.5003 13.5719Z" fill="#441D06"/>
<path d="M27.5 0C26.9067 0 26.4258 0.480928 26.4258 1.07422V2.43128C26.4258 3.02457 26.9067 3.5055 27.5 3.5055C28.0933 3.5055 28.5742 3.02457 28.5742 2.43128V1.07422C28.5742 0.480928 28.0933 0 27.5 0Z" fill="#441D06"/>
<path d="M27.5 17.1689C26.9067 17.1689 26.4258 17.6499 26.4258 18.2432V19.6002C26.4258 20.1935 26.9067 20.6744 27.5 20.6744C28.0933 20.6744 28.5742 20.1935 28.5742 19.6002V18.2432C28.5742 17.6499 28.0933 17.1689 27.5 17.1689Z" fill="#441D06"/>
<path d="M36.7633 9.26318H35.4063C34.813 9.26318 34.332 9.74411 34.332 10.3374C34.332 10.9307 34.813 11.4116 35.4063 11.4116H36.7633C37.3566 11.4116 37.8375 10.9307 37.8375 10.3374C37.8375 9.74411 37.3566 9.26318 36.7633 9.26318Z" fill="#441D06"/>
<path d="M19.5944 9.26318H18.2373C17.644 9.26318 17.1631 9.74411 17.1631 10.3374C17.1631 10.9307 17.644 11.4116 18.2373 11.4116H19.5944C20.1877 11.4116 20.6686 10.9307 20.6686 10.3374C20.6686 9.74411 20.1877 9.26318 19.5944 9.26318Z" fill="#441D06"/>
<path d="M35.6751 2.16227C35.2555 1.74279 34.5753 1.74279 34.1558 2.16227L33.0695 3.24863C32.65 3.66822 32.65 4.34841 33.0695 4.76789C33.2792 4.97769 33.5542 5.08253 33.8291 5.08253C34.104 5.08253 34.379 4.97769 34.5888 4.76779L35.6751 3.68143C36.0946 3.26195 36.0946 2.58175 35.6751 2.16227Z" fill="#441D06"/>
<path d="M21.931 15.907C21.5116 15.4874 20.8313 15.4875 20.4118 15.9068L19.3254 16.9932C18.9059 17.4127 18.9059 18.0929 19.3253 18.5124C19.535 18.7222 19.8099 18.827 20.0849 18.827C20.3598 18.827 20.6347 18.7222 20.8445 18.5125L21.9309 17.4261C22.3505 17.0066 22.3505 16.3264 21.931 15.907Z" fill="#441D06"/>
<path d="M35.6741 16.9927L34.5877 15.9064C34.1682 15.4869 33.488 15.487 33.0686 15.9065C32.649 16.3259 32.6491 17.0061 33.0686 17.4256L34.1549 18.512C34.3647 18.7218 34.6396 18.8266 34.9145 18.8266C35.1894 18.8266 35.4644 18.7218 35.6741 18.5119C36.0937 18.0924 36.0936 17.4122 35.6741 16.9927Z" fill="#441D06"/>
<path d="M21.93 3.24911L20.8436 2.16276C20.4241 1.74327 19.7439 1.74327 19.3244 2.16276C18.9049 2.58224 18.9049 3.26243 19.3244 3.68192L20.4108 4.76827C20.6205 4.97807 20.8955 5.08291 21.1704 5.08291C21.4453 5.08291 21.7203 4.97807 21.93 4.76838C22.3495 4.34879 22.3495 3.6686 21.93 3.24911Z" fill="#441D06"/>
<path d="M51.8849 15.5601H44.5813C42.8636 15.5601 41.4661 16.9575 41.4661 18.6752V19.5341H38.3513C36.6337 19.5341 35.2362 20.9316 35.2362 22.6491V24.8845H19.7636V22.6491C19.7636 20.9315 18.3661 19.5341 16.6486 19.5341H13.5338V18.6752C13.5338 16.9575 12.1363 15.5601 10.4187 15.5601H3.11513C1.39745 15.5601 0 16.9574 0 18.6751V53.9259C0 54.5192 0.480928 55.0001 1.07422 55.0001H53.9258C54.5191 55.0001 55 54.5192 55 53.9259V18.6751C55 16.9574 53.6026 15.5601 51.8849 15.5601ZM33.0876 27.0328H35.2364V45.2938C34.4867 45.4704 33.7633 45.7478 33.0876 46.118V27.0328ZM19.7637 27.0328H30.9391V45.812C30.4877 45.6964 30.0181 45.6474 29.5468 45.6716C29.2567 45.3726 28.929 45.1155 28.5743 44.9052V33.8004C28.5743 33.2071 28.0934 32.7262 27.5001 32.7262C26.9068 32.7262 26.4259 33.2071 26.4259 33.8004V44.2559C26.3487 44.252 26.2712 44.25 26.1934 44.25C25.4793 44.25 24.7876 44.4095 24.1574 44.7161C22.8385 43.8309 21.3439 43.2984 19.7637 43.1498V27.0328ZM6.68153 40.9198C5.89811 40.9198 5.26077 40.2825 5.26077 39.499V34.6559C5.26077 33.8725 5.89811 33.2351 6.68153 33.2351C7.46496 33.2351 8.10229 33.8725 8.10229 34.6559V39.499C8.10229 40.2825 7.46496 40.9198 6.68153 40.9198ZM7.75575 52.8516V42.903C9.20058 42.446 10.2507 41.0928 10.2507 39.499V34.6559C10.2507 32.6878 8.64961 31.0867 6.68153 31.0867C4.71346 31.0867 3.11233 32.6878 3.11233 34.6559V39.499C3.11233 41.093 4.1626 42.4461 5.60731 42.903V52.8517H2.14844V18.6751C2.14844 18.1421 2.5821 17.7084 3.11502 17.7084H10.4186C10.9517 17.7084 11.3852 18.1421 11.3852 18.6751V37.9899C11.3852 38.5831 11.8661 39.0641 12.4594 39.0641C13.0527 39.0641 13.5337 38.5831 13.5337 37.9899V21.6825H16.6485C17.1815 21.6825 17.615 22.1161 17.615 22.649V43.1852C12.9179 43.7901 9.27674 47.8147 9.27674 52.6737C9.27674 52.733 9.27728 52.7923 9.27835 52.8516H7.75575ZM11.4274 52.8519V52.8517C11.426 52.7924 11.4253 52.7331 11.4253 52.6738C11.4253 48.5833 14.7532 45.2552 18.8438 45.2552C20.5266 45.2552 22.1129 45.8044 23.4313 46.8433C23.8077 47.1399 24.3349 47.1513 24.7239 46.8714C25.1535 46.562 25.6616 46.3985 26.1933 46.3985C26.9963 46.3985 27.7583 46.7868 28.2319 47.4374C28.477 47.7743 28.8951 47.9392 29.3042 47.86C29.462 47.8295 29.6243 47.814 29.7865 47.814C30.4901 47.814 31.1428 48.097 31.6245 48.6107C32.0142 49.0263 32.6604 49.0654 33.0973 48.6999C34.242 47.7424 35.6956 47.2151 37.1905 47.2151C40.4579 47.2151 43.1599 49.6826 43.5312 52.8519H11.4274ZM48.3185 46.2914C47.535 46.2914 46.8977 45.6541 46.8977 44.8707V40.0276C46.8977 39.2442 47.535 38.6069 48.3185 38.6069C49.1019 38.6069 49.7392 39.2442 49.7392 40.0276V44.8708C49.7392 45.6541 49.1019 46.2914 48.3185 46.2914ZM52.8518 52.8517H52.8516H49.3927V48.2746C50.8374 47.8177 51.8877 46.4645 51.8877 44.8707V40.0276C51.8877 38.0596 50.2865 36.4584 48.3185 36.4584C46.3504 36.4584 44.7493 38.0596 44.7493 40.0276V44.8708C44.7493 46.4647 45.7995 47.8179 47.2442 48.2747V52.8517H45.6907C45.3165 48.559 41.7499 45.1667 37.3849 45.0687V22.6491C37.3849 22.1161 37.8185 21.6826 38.3515 21.6826H41.4663V37.9899C41.4663 38.5831 41.9473 39.0641 42.5406 39.0641C43.1339 39.0641 43.6148 38.5831 43.6148 37.9899V18.6751C43.6148 18.1421 44.0484 17.7084 44.5815 17.7084H51.8851C52.4181 17.7084 52.8518 18.1421 52.8518 18.6751V52.8517Z" fill="#441D06"/>
</g>
<defs>
<clipPath id="clip0_325_2194">
<rect width="55" height="55" fill="white"/>
</clipPath>
</defs>
</svg>
