<svg width="55" height="55" viewBox="0 0 55 55" fill="none" xmlns="http://www.w3.org/2000/svg">
<g clip-path="url(#clip0_325_2173)">
<path d="M54.0831 43.0832C54.5894 43.0832 54.9997 42.6728 54.9997 42.1666C54.9997 41.6603 54.5892 41.25 54.0831 41.25H53.1665C53.1665 40.7437 52.7561 40.3334 52.2499 40.3334C51.7436 40.3334 51.3332 40.7437 51.3332 41.25H36.6668C36.6668 40.7437 36.2563 40.3334 35.7501 40.3334C35.2439 40.3334 34.8335 40.7437 34.8335 41.25H33.9169C33.4106 41.25 33.0003 41.6604 33.0003 42.1666C33.0003 42.6729 33.4106 43.0832 33.9169 43.0832H34.8335V45.8332H33.9169C33.4106 45.8332 33.0003 46.2435 33.0003 46.7498C33.0003 47.2561 33.4106 47.6664 33.9169 47.6664H34.8335V48.583H33.9169C33.4106 48.583 33.0003 48.9935 33.0003 49.4996C33.0003 50.0058 33.4106 50.4162 33.9169 50.4162H34.8335V53.1662H19.2503V45.5823C20.6063 46.3464 22.1362 46.7485 23.6926 46.7497C28.8981 46.6747 33.0612 42.4013 33.0001 37.1955C33.0283 33.5762 31.0072 30.2521 27.7808 28.6118C28.8429 27.1657 29.412 25.4164 29.4042 23.6222C29.4361 19.6623 26.6583 16.2348 22.7777 15.4457C23.7596 13.2803 23.5908 10.7669 22.3281 8.75233C21.0655 6.73767 18.8772 5.48998 16.5003 5.42972C16.4731 5.42972 16.4469 5.43359 16.4198 5.43391C15.9318 2.27931 13.1983 -0.0362379 10.0064 0.000929397C6.81453 0.0380967 4.1358 2.41681 3.72137 5.58194C1.40024 6.02687 -0.202142 8.16388 0.021184 10.5168C0.24451 12.8697 2.22039 14.667 4.58396 14.6671H9.92713C10.0098 14.9307 10.1079 15.1893 10.2208 15.4414C6.34038 16.2332 3.564 19.662 3.59655 23.6223C3.58871 25.4165 4.15782 27.1658 5.21988 28.6119C1.99352 30.2523 -0.0275846 33.5763 0.000666821 37.1956C-0.0605626 42.4013 4.10261 46.6748 9.30818 46.7498C10.8646 46.7486 12.3945 46.3466 13.7504 45.5825V53.1663H0.917389C0.411119 53.1663 0.000774233 53.5767 0.000774233 54.0829C0.000774233 54.5892 0.411119 54.9995 0.917389 54.9995H54.0831C54.5894 54.9995 54.9997 54.5892 54.9997 54.0829C54.9997 53.5767 54.5892 53.1663 54.0831 53.1663H53.1665V50.4164H54.0831C54.5894 50.4164 54.9997 50.006 54.9997 49.4997C54.9997 48.9935 54.5892 48.5831 54.0831 48.5831H53.1665V47.6665H54.0831C54.5894 47.6665 54.9997 47.2562 54.9997 46.7499C54.9997 46.2436 54.5892 45.8333 54.0831 45.8333H53.1665V43.0833H54.0831V43.0832ZM9.59016 12.5169C9.59016 12.6233 9.60219 12.7279 9.60691 12.8338H4.58396C3.06525 12.8338 1.834 11.6026 1.834 10.0838C1.834 8.56499 3.06525 7.33385 4.58396 7.33385C4.82705 7.33396 5.06026 7.23739 5.23223 7.06541C5.40411 6.89353 5.50068 6.66032 5.50068 6.41713C5.49595 4.02488 7.3353 2.0331 9.72035 1.84769C12.1054 1.66218 14.2305 3.34577 14.5957 5.70998C11.606 6.62316 9.57071 9.39094 9.59016 12.5169ZM17.4171 53.1664H15.5838V44.235C15.9123 43.929 16.2186 43.6001 16.5004 43.2507C16.7821 43.6001 17.0885 43.929 17.417 44.2349V53.1664H17.4171ZM17.5284 41.5182L23.5651 35.4814C23.9175 35.1225 23.9148 34.5468 23.5593 34.1911C23.2037 33.8354 22.6278 33.8329 22.2689 34.1853L17.4171 39.037V29.713L21.7317 25.3983C22.0858 25.0398 22.0841 24.4626 21.7276 24.1062C21.3713 23.7499 20.7942 23.7481 20.4355 24.1021L17.417 27.1206V22.9169C17.417 22.4107 17.0065 22.0003 16.5004 22.0003C15.9941 22.0003 15.5838 22.4108 15.5838 22.9169V27.1206L12.5653 24.1021C12.2067 23.7481 11.6295 23.7499 11.2731 24.1062C10.9167 24.4625 10.915 25.0397 11.269 25.3983L15.5837 29.7131V39.0371L10.7318 34.1853C10.3732 33.8312 9.79608 33.8331 9.43966 34.1894C9.08335 34.5457 9.08152 35.123 9.43558 35.4815L15.4723 41.5182C14.1303 43.6268 11.8073 44.9073 9.30796 44.9166C5.1145 44.8428 1.77149 41.3894 1.83379 37.1957C1.7949 33.8794 3.8911 30.9133 7.03023 29.8428C7.33369 29.7428 7.56314 29.492 7.63576 29.1808C7.70837 28.8696 7.61352 28.5432 7.38568 28.3192C6.12565 27.0823 5.42011 25.3879 5.42978 23.6223C5.36984 20.1246 8.13601 17.23 11.6329 17.1314C12.0113 17.1648 12.373 16.9689 12.5517 16.6336C12.708 16.3255 12.6774 15.9557 12.4726 15.6776C11.7931 14.7637 11.4253 13.6556 11.4234 12.5168C11.3787 9.66561 13.6493 7.31591 16.5003 7.26306C19.3513 7.31591 21.6219 9.66561 21.5772 12.5168C21.5752 13.6556 21.2074 14.7637 20.528 15.6776C20.3273 15.9581 20.3022 16.3277 20.4631 16.6328C20.6251 16.9422 20.9458 17.1358 21.2952 17.135C24.8174 17.1983 27.6241 20.0999 27.5708 23.6223C27.5804 25.3879 26.8748 27.0823 25.6149 28.3192C25.3869 28.5432 25.2922 28.8696 25.3648 29.1808C25.4374 29.492 25.6668 29.7428 25.9703 29.8428C29.4909 31.0739 31.637 34.6361 31.0797 38.3239C30.5224 42.0116 27.4197 44.7808 23.6926 44.9166C21.1932 44.9073 18.8704 43.6268 17.5284 41.5182ZM51.3331 53.1664H36.6668V50.4165H51.3331V53.1664ZM51.3331 48.5831H36.6668V47.6665H51.3331V48.5831ZM51.3331 45.8332H36.6668V43.0832H51.3331V45.8332Z" fill="#441D06"/>
<path d="M39.4165 22.9169H50.4164C52.7798 22.9168 54.7557 21.1195 54.9791 18.7666C55.2025 16.4137 53.6001 14.2766 51.2788 13.8318C50.8594 10.6382 48.1374 8.25049 44.9164 8.25049C41.6955 8.25049 38.9735 10.6382 38.5541 13.8318C36.2328 14.2766 34.6304 16.4137 34.8538 18.7666C35.0771 21.1195 37.053 22.9168 39.4165 22.9169ZM39.4165 15.5836C39.6596 15.5837 39.8928 15.4872 40.0648 15.3152C40.2367 15.1433 40.3333 14.9101 40.3333 14.6669C40.3333 12.1357 42.3853 10.0836 44.9166 10.0836C47.4478 10.0836 49.4999 12.1355 49.4999 14.6669C49.4997 14.91 49.5963 15.1432 49.7683 15.3152C49.9402 15.4871 50.1734 15.5836 50.4166 15.5836C51.9353 15.5836 53.1665 16.8149 53.1665 18.3336C53.1665 19.8523 51.9354 21.0835 50.4166 21.0835H39.4167C37.898 21.0835 36.6668 19.8524 36.6668 18.3336C36.6668 16.8148 37.8977 15.5836 39.4165 15.5836Z" fill="#441D06"/>
</g>
<defs>
<clipPath id="clip0_325_2173">
<rect width="55" height="55" fill="white"/>
</clipPath>
</defs>
</svg>
