<svg width="60" height="60" viewBox="0 0 60 60" fill="none" xmlns="http://www.w3.org/2000/svg">
<path d="M19.5789 59.9594C19.5829 59.9594 20.0541 57.4881 20.6261 54.5314L21.666 49.1574L24.8522 49.1556C28.1302 49.1548 28.5543 49.1556 29.1321 48.9991C31.9292 48.3205 34.1764 45.5135 34.8863 41.8139C34.9343 41.5616 35.895 34.7879 37.0218 26.7529C38.1485 18.7179 39.0803 12.0799 39.0924 11.9999L39.1144 11.852H43.685H48.2556L48.2432 11.939C48.2362 12.026 47.2343 19.2494 46.0165 28.0777C44.7987 36.907 43.7574 44.4218 43.7025 44.7784C42.9184 49.8681 41.4069 54.0408 39.3889 56.6861C39.1583 56.9906 38.6948 57.5212 38.4179 57.7935C37.319 58.8904 36.0894 59.575 34.632 59.9012L34.2559 59.9881L26.9138 59.9968C20.6631 60.0055 19.5727 60.0021 19.5789 59.9099L19.5789 59.9594ZM46.335 45.2969C46.3425 45.2099 47.3631 37.6803 48.6023 28.5231L50.8556 11.8746L55.4278 11.8659C59.1515 11.8581 60 11.8651 60 11.8659C60 11.8659 55.683 43.7955 55.4752 45.2969L55.4632 45.3839H50.8921H46.321L46.335 45.2621L46.335 45.2969ZM2.64638 45.2969C1.033 44.9141 0.150341 43.2492 0.0139303 40.3316C-0.0300698 39.3861 0.0314306 38.0952 0.180481 36.8408C0.262781 36.1449 2.29947 21.2336 2.40767 20.5307C2.90527 17.2957 3.81637 14.9374 5.11821 13.5135C5.90243 12.6523 6.76705 12.1686 7.98089 11.8981C8.14154 11.8981 10.0947 11.8111 16.2633 11.8111C23.9725 11.8024 24.335 11.8024 24.3243 11.8981C24.3183 11.8981 24.058 13.8371 23.7463 16.124C23.4346 18.41 23.1744 20.3115 23.1681 20.3481C23.1571 20.435 22.9411 20.435 19.0324 20.435C16.1668 20.435 14.8387 20.4437 14.6805 20.522C14.374 20.609 14.0696 20.7221 13.8554 20.8961C13.4307 21.2527 13.1822 21.8094 12.9808 22.8602C12.889 23.3387 11.6045 32.5176 11.4986 33.4509C11.2468 35.6709 11.4696 36.6469 12.3185 37.04L12.5058 37.127H17.0748C22.1148 37.127 21.7482 37.127 22.2444 36.8922C23.1656 36.4311 23.7142 35.2751 24.075 33.0456C24.1195 32.7672 25.1545 25.2263 26.3748 16.2814L28.5935 0.0173983L33.3029 0.00869809L38.0122 0L37.9997 0.121782C37.9792 0.330551 33.099 36.2354 33.015 36.7973C32.7406 38.6328 32.3253 40.2368 31.8191 41.4164C31.6145 41.8948 31.2082 42.6342 30.959 42.9839C29.9624 44.3826 28.6186 45.1577 26.8062 45.3804C26.5875 45.3804 22.6183 45.3804 14.6699 45.3804C5.06786 45.3769 2.81893 45.3839 2.64638 45.2969Z" fill="#CDA20A"/>
</svg>
