<svg width="18" height="18" viewBox="0 0 18 18" fill="none" xmlns="http://www.w3.org/2000/svg">
<path d="M12.6975 0.256318C15.3113 0.281318 17.7175 2.52507 17.7438 5.30257C17.7525 7.76757 17.7525 10.2326 17.7438 12.6976C17.7188 15.3013 15.475 17.7176 12.6975 17.7438C10.2325 17.7526 7.76751 17.7526 5.30251 17.7438C2.68751 17.7188 0.282507 15.4751 0.256257 12.6976C0.247507 10.2326 0.247507 7.76757 0.256257 5.30257C0.280007 2.68632 2.51876 0.282568 5.30251 0.256318C7.76751 0.247568 10.2325 0.247568 12.6975 0.256318ZM5.33626 1.43757C3.30751 1.44382 1.45751 3.20257 1.43751 5.31007C1.43001 7.77007 1.43001 10.2301 1.43751 12.6901C1.45626 14.6963 3.17251 16.5426 5.31001 16.5626C7.77001 16.5701 10.23 16.5701 12.69 16.5626C14.7013 16.5438 16.5425 14.8276 16.5625 12.6901C16.57 10.2301 16.57 7.77007 16.5625 5.31007C16.5438 3.29007 14.7938 1.45757 12.69 1.43757C10.2388 1.43007 7.78751 1.43757 5.33626 1.43757Z" fill="white"/>
<path d="M9.03002 4.625C11.0525 4.64375 12.9375 6.20375 13.3075 8.2025C13.5713 9.6275 13.0738 11.1725 12.0238 12.175C10.855 13.2875 9.04627 13.685 7.49627 13.1175C5.76377 12.4837 4.54502 10.6575 4.62627 8.8075C4.72502 6.5975 6.67752 4.6325 9.00002 4.625C9.01002 4.625 9.02002 4.625 9.03002 4.625ZM8.98002 5.80875C7.53627 5.8225 6.17502 6.9175 5.87502 8.34C5.57127 9.77875 6.39877 11.375 7.75752 11.9488C9.24127 12.5763 11.1575 11.8725 11.8738 10.4075C12.615 8.89375 11.9163 6.8375 10.3513 6.10625C9.92502 5.9075 9.45127 5.8075 8.98002 5.80875Z" fill="white"/>
</svg>
