<svg width="25" height="25" viewBox="0 0 25 25" fill="none" xmlns="http://www.w3.org/2000/svg">
<path d="M8.85417 18.75L18.75 12.5L8.85417 6.25V18.75ZM9.89583 8.33333L16.6667 12.5L9.89583 16.6667V8.33333ZM12.5 0C5.59635 0 0 5.59635 0 12.5C0 19.4036 5.59635 25 12.5 25C19.4036 25 25 19.4036 25 12.5C25 5.59635 19.4036 0 12.5 0ZM12.5 23.9583C6.18177 23.9583 1.04167 18.8182 1.04167 12.5C1.04167 6.18177 6.18177 1.04167 12.5 1.04167C18.8182 1.04167 23.9583 6.18177 23.9583 12.5C23.9583 18.8182 18.8182 23.9583 12.5 23.9583Z" fill="#CDA20A"/>
</svg>
