<svg width="37" height="22" viewBox="0 0 37 22" fill="none" xmlns="http://www.w3.org/2000/svg">
<path d="M6.83081 18.7463H5.55061C4.06321 18.7463 2.84619 17.5721 2.84619 16.1366V14.3519C2.84619 11.9244 4.88518 9.95697 7.40004 9.95697H32.4462C34.9611 9.95697 37 11.9244 37 14.3519V16.3265C37 17.6577 35.8718 18.7463 34.4931 18.7463H33.5847" fill="#332208"/>
<path d="M8.68701 9.41022C8.68701 5.57575 12.9813 2.46756 18.278 2.46756C23.5752 2.46756 27.8194 5.9452 27.8695 9.41022" fill="#332208"/>
<path d="M34.0417 17.4069C34.0417 19.1849 32.5475 20.6265 30.7043 20.6265C28.8617 20.6265 27.3675 19.1849 27.3675 17.4069C27.3675 15.6277 28.8617 14.1861 30.7043 14.1861C32.5475 14.1861 34.0417 15.6277 34.0417 17.4069Z" fill="#332208"/>
<path d="M14.0401 18.5053C14.0401 20.284 12.5458 21.7255 10.7032 21.7255C8.86008 21.7255 7.36584 20.284 7.36584 18.5053C7.36584 16.7267 8.86008 15.2846 10.7032 15.2846C12.5458 15.2846 14.0401 16.7267 14.0401 18.5053Z" fill="#332208"/>
<path d="M33.1395 18.2858C32.6682 18.2858 32.2856 17.9163 32.2856 17.4618C32.2856 17.0062 32.6682 16.6378 33.1395 16.6378C33.3899 16.6378 34.1538 16.6378 34.1538 15.2281V12.9785C34.1538 11.0093 32.494 9.40749 30.4538 9.40749H5.40769C3.36757 9.40749 1.70769 11.0093 1.70769 12.9785V15.0376C1.70769 15.8709 2.41012 16.5489 3.27365 16.5489H4.55385C5.02517 16.5489 5.40769 16.9178 5.40769 17.3729C5.40769 17.8279 5.02517 18.1968 4.55385 18.1968H3.27365C1.46862 18.1968 0 16.78 0 15.0376V12.9785C0 10.1008 2.42606 7.75952 5.40769 7.75952H30.4538C33.4355 7.75952 35.8615 10.1008 35.8615 12.9785V15.2281C35.8615 17.0858 34.7931 18.2858 33.1395 18.2858Z" fill="#332208"/>
<path d="M25.6154 18.1968H11.9538C11.4825 18.1968 11.1 17.8279 11.1 17.3728C11.1 16.9178 11.4825 16.5489 11.9538 16.5489H25.6154C26.0867 16.5489 26.4692 16.9178 26.4692 17.3728C26.4692 17.8279 26.0867 18.1968 25.6154 18.1968Z" fill="#332208"/>
<path d="M25.5926 8.85797C25.1264 8.85797 24.7456 8.36062 24.7388 7.90937C24.6972 5.01582 20.9517 1.71165 16.0011 1.71165C11.1831 1.71165 7.26397 4.4224 7.26397 7.79574C7.26397 8.25082 6.88144 8.6027 6.41012 8.6027C5.9388 8.6027 5.55627 8.22557 5.55627 7.77049C5.55627 3.48807 10.2416 0 16.0011 0C21.5056 0 26.3867 3.75761 26.4465 7.88906C26.4533 8.3436 26.0765 8.30901 25.604 8.85797C25.6006 8.85797 25.5966 8.85797 25.5926 8.85797Z" fill="#332208"/>
<path d="M29.5659 22C27.2554 22 25.3752 20.1857 25.3752 17.9558C25.3752 15.726 27.2554 13.9117 29.5659 13.9117C31.8769 13.9117 33.7571 15.726 33.7571 17.9558C33.7571 20.1857 31.8769 22 29.5659 22ZM29.5659 15.5597C28.1969 15.5597 27.0829 16.6345 27.0829 17.9558C27.0829 19.2772 28.1969 20.352 29.5659 20.352C30.9354 20.352 32.0494 19.2772 32.0494 17.9558C32.0494 16.6345 30.9354 15.5597 29.5659 15.5597Z" fill="#332208"/>
<path d="M8.42635 21.4511C6.11528 21.4511 4.23511 19.6362 4.23511 17.4069C4.23511 15.1765 6.11528 13.3622 8.42635 13.3622C10.7369 13.3622 12.617 15.1765 12.617 17.4069C12.617 19.6362 10.7369 21.4511 8.42635 21.4511ZM8.42635 15.0102C7.05678 15.0102 5.9428 16.0856 5.9428 17.4069C5.9428 18.7282 7.05678 19.8025 8.42635 19.8025C9.79535 19.8025 10.9093 18.7282 10.9093 17.4069C10.9093 16.0856 9.79535 15.0102 8.42635 15.0102Z" fill="#332208"/>
<path d="M15.6538 9.13301C15.1825 9.13301 14.8 8.76356 14.8 8.30902V1.16764C14.8 0.712008 15.1825 0.343109 15.6538 0.343109C16.1252 0.343109 16.5077 0.712008 16.5077 1.16764V8.30902C16.5077 8.76356 16.1252 9.13301 15.6538 9.13301Z" fill="#332208"/>
<path d="M34.7231 12.7034H32.4462C31.9749 12.7034 31.5923 12.3345 31.5923 11.8794C31.5923 11.4243 31.9749 11.0555 32.4462 11.0555H34.7231C35.1944 11.0555 35.577 11.4243 35.577 11.8794C35.577 12.3345 35.1944 12.7034 34.7231 12.7034Z" fill="#332208"/>
</svg>
