<svg width="33" height="22" viewBox="0 0 33 22" fill="none" xmlns="http://www.w3.org/2000/svg">
<path d="M28.0032 0H4.88873C4.28024 0 3.78957 0.44736 3.78957 1.00057C3.78957 1.55379 4.28024 1.99863 4.88873 1.99863H28.0032C29.5445 1.99863 30.7989 3.1416 30.7989 4.5429V4.63994H4.88873C4.28024 4.63994 3.78957 5.08478 3.78957 5.63799C3.78957 6.18994 4.28024 6.6373 4.88873 6.6373H30.7989V17.4584C30.7989 18.8584 29.5445 20.0014 28.0032 20.0014H4.99546C3.45413 20.0014 2.19972 18.8584 2.19972 17.4584V4.44335C2.19972 3.89014 1.70766 3.44278 1.10055 3.44278C0.492062 3.44278 0 3.89014 0 4.44335V17.4584C0 19.9636 2.24131 22 4.99546 22H28.0032C30.7573 22 33 19.9636 33 17.4584V4.5429C33 2.03769 30.7573 0 28.0032 0ZM27.3614 14.2752C27.9685 14.2752 28.4619 13.8278 28.4619 13.2759C28.4619 12.7214 27.9685 12.2765 27.3614 12.2765H16.4459C15.8375 12.2765 15.3454 12.7214 15.3454 13.2759C15.3454 13.8278 15.8375 14.2752 16.4459 14.2752H27.3614ZM6.52709 11.7259H9.93687V14.8246H6.52709V11.7259ZM11.036 16.8258C11.6445 16.8258 12.1366 16.3784 12.1366 15.8239V10.7253C12.1366 10.1733 11.6445 9.72471 11.036 9.72471H5.42792C4.81943 9.72471 4.32876 10.1733 4.32876 10.7253V15.8239C4.32876 16.3784 4.81943 16.8258 5.42792 16.8258H11.036Z" fill="#332208"/>
</svg>
