<svg width="19" height="30" viewBox="0 0 19 30" fill="none" xmlns="http://www.w3.org/2000/svg">
<path d="M11.9439 21.8656L17.1212 13.7697C17.1381 13.7435 17.1523 13.716 17.1633 13.6875C18.0574 12.2697 18.5294 10.65 18.5294 8.99647C18.5294 4.03582 14.3794 0 9.27835 0C4.17731 0 0.0269345 4.03582 0.0269345 8.99647C0.0269345 10.6504 0.499675 12.2707 1.39439 13.6895C1.40475 13.7143 1.41684 13.7385 1.43134 13.762L6.42291 21.8857C2.5481 22.4183 0 23.9678 0 25.8473C0 28.1762 4.06957 30 9.26453 30C14.4595 30 18.5291 28.1759 18.5291 25.8473C18.5294 23.959 15.8625 22.375 11.9439 21.8656ZM2.32433 13.2358C1.49902 11.9584 1.06289 10.4925 1.06289 8.99647C1.06289 4.59126 4.74812 1.00744 9.27835 1.00744C13.8082 1.00744 17.4935 4.59126 17.4935 8.99647C17.4935 10.4932 17.0573 11.959 16.2324 13.2358C16.2151 13.2627 16.2009 13.2905 16.1895 13.3194L10.7197 21.8716C10.6375 21.9942 10.6213 22.0221 10.5208 22.1826L9.13953 24.3425L2.37061 13.3265C2.35852 13.2952 2.34298 13.2647 2.32433 13.2358ZM9.26488 28.9926C4.41558 28.9926 1.0363 27.3346 1.0363 25.8473C1.0363 24.4973 3.58129 23.2253 7.00443 22.8314L8.68613 25.5686C8.77902 25.7194 8.94546 25.8124 9.12606 25.8137C9.12744 25.8137 9.12917 25.8137 9.13055 25.8137C9.30942 25.8137 9.47587 25.7237 9.57048 25.576L11.3385 22.8116C14.8162 23.1779 17.4931 24.4822 17.4931 25.8473C17.4935 27.335 14.1142 28.9926 9.26488 28.9926Z" fill="#332208"/>
<path d="M12.6286 8.99645C12.6286 7.19279 11.1196 5.72528 9.26488 5.72528C7.41018 5.72528 5.90114 7.19279 5.90114 8.99645C5.90114 10.8001 7.41018 12.2676 9.26488 12.2676C11.1196 12.2676 12.6286 10.8001 12.6286 8.99645ZM6.93709 8.99645C6.93709 7.74823 7.98133 6.73272 9.26488 6.73272C10.5484 6.73272 11.5927 7.74823 11.5927 8.99645C11.5927 10.2447 10.5488 11.2602 9.26488 11.2602C7.98099 11.2602 6.93709 10.2447 6.93709 8.99645Z" fill="#332208"/>
</svg>
