<svg width="58" height="58" fill="none" xmlns="http://www.w3.org/2000/svg"><path d="M4.559 25.29c.234-.058 22.523-5.273 42.421-13.394l-1.593 3.878c-.504 1.22.082 2.637 1.312 3.118 1.407.562 2.778-.317 3.117-1.313l4.067-9.949a2.385 2.385 0 00-.012-1.84 2.362 2.362 0 00-1.312-1.289L42.539.458a2.391 2.391 0 00-3.117 1.324A2.392 2.392 0 0040.746 4.9l5.367 2.167c-19.746 8.192-42.398 13.5-42.632 13.56a2.385 2.385 0 00-1.793 2.87c.257 1.102 1.441 2.145 2.87 1.793zm50.273 27.645V25.009a2.386 2.386 0 00-2.39-2.39 2.386 2.386 0 00-2.391 2.39v27.914H38.812v-24.34a2.386 2.386 0 00-2.39-2.39 2.386 2.386 0 00-2.39 2.39v24.352h-11.24v-20.79a2.386 2.386 0 00-2.39-2.39 2.386 2.386 0 00-2.391 2.39v20.79H6.762V36.903a2.386 2.386 0 00-2.39-2.39 2.386 2.386 0 00-2.392 2.39V52.97A2.392 2.392 0 000 55.325a2.386 2.386 0 002.39 2.39h52.641a2.386 2.386 0 002.39-2.39c0-1.324-1.136-2.46-2.589-2.39z" fill="#339"/></svg>