<svg width="60" height="60" fill="none" xmlns="http://www.w3.org/2000/svg"><path fill-rule="evenodd" clip-rule="evenodd" d="M27.939 15.872c.755-1.403 2.767-1.403 3.522 0l3.44 6.393a2 2 0 001.404 1.02l7.143 1.296c1.568.285 2.19 2.198 1.088 3.35l-5.016 5.247a2 2 0 00-.536 1.65l.974 7.194c.214 1.58-1.414 2.762-2.85 2.07l-6.54-3.148a2 2 0 00-1.736 0l-6.54 3.149c-1.436.691-3.064-.492-2.85-2.07l.974-7.194a2 2 0 00-.536-1.65l-5.016-5.248c-1.101-1.152-.48-3.065 1.088-3.35l7.143-1.296a2 2 0 001.404-1.02l3.44-6.393zm.962 8.762l.799-1.484.799 1.484a7 7 0 004.913 3.57l1.659.301-1.165 1.218a7 7 0 00-1.877 5.777l.226 1.67-1.518-.731a7 7 0 00-6.074 0l-1.518.73.226-1.67a7 7 0 00-1.877-5.776l-1.165-1.218 1.659-.3a7 7 0 004.913-3.57z" fill="#339"/><path fill-rule="evenodd" clip-rule="evenodd" d="M60 30c0 16.569-13.431 30-30 30C13.431 60 0 46.569 0 30 0 13.431 13.431 0 30 0c16.569 0 30 13.431 30 30zm-5 0c0 13.807-11.193 25-25 25S5 43.807 5 30 16.193 5 30 5s25 11.193 25 25z" fill="#339"/></svg>