<svg width="40" height="40" viewBox="0 0 40 40" fill="none" xmlns="http://www.w3.org/2000/svg">
<path d="M31.6667 5H8.33333C6.5 5 5 6.5 5 8.33333V31.6667C5 33.5 6.5 35 8.33333 35H31.6667C33.5 35 35 33.5 35 31.6667V8.33333C35 6.5 33.5 5 31.6667 5ZM21.7167 11.7667L23.4833 10L25.8333 12.35L28.1833 10L29.95 11.7667L27.6 14.1167L29.95 16.4667L28.1833 18.2333L25.8333 15.9L23.4833 18.25L21.7167 16.4833L24.0667 14.1333L21.7167 11.7667ZM10.4167 12.8667H18.75V15.3667H10.4167V12.8667ZM19.1667 26.6667H15.8333V30H13.3333V26.6667H10V24.1667H13.3333V20.8333H15.8333V24.1667H19.1667V26.6667ZM30 28.75H21.6667V26.25H30V28.75ZM30 24.5833H21.6667V22.0833H30V24.5833Z" fill="#FF9900"/>
</svg>
