<svg width="25" height="31" viewBox="0 0 25 31" fill="none" xmlns="http://www.w3.org/2000/svg">
<path d="M12.4997 0.916504C9.42559 0.91635 6.47567 2.12949 4.29107 4.29224C2.10647 6.455 0.863749 9.39257 0.833008 12.4665C0.833008 20.4582 11.1143 29.354 11.5518 29.7332C11.8159 29.9591 12.1521 30.0833 12.4997 30.0833C12.8473 30.0833 13.1834 29.9591 13.4476 29.7332C13.958 29.354 24.1663 20.4582 24.1663 12.4665C24.1356 9.39257 22.8929 6.455 20.7083 4.29224C18.5237 2.12949 15.5738 0.91635 12.4997 0.916504ZM12.4997 16.9582C11.4902 16.9582 10.5033 16.6588 9.66395 16.098C8.82457 15.5371 8.17036 14.7399 7.78404 13.8073C7.39772 12.8746 7.29664 11.8483 7.49358 10.8582C7.69053 9.86812 8.17665 8.95864 8.89048 8.24481C9.60431 7.53098 10.5138 7.04486 11.5039 6.84791C12.494 6.65097 13.5203 6.75205 14.453 7.13837C15.3856 7.52469 16.1828 8.17891 16.7436 9.01828C17.3045 9.85766 17.6038 10.8445 17.6038 11.854C17.6038 13.2077 17.0661 14.506 16.1089 15.4632C15.1516 16.4204 13.8534 16.9582 12.4997 16.9582Z" fill="#FF9900"/>
</svg>
