<svg width="26" height="26" viewBox="0 0 26 26" fill="none" xmlns="http://www.w3.org/2000/svg">
<path d="M12.8945 6.47931C12.2517 6.47931 11.6234 6.66992 11.0889 7.02703C10.5545 7.38415 10.1379 7.89173 9.89192 8.48559C9.64594 9.07945 9.58158 9.73291 9.70698 10.3634C9.83238 10.9938 10.1419 11.5729 10.5964 12.0274C11.051 12.4819 11.6301 12.7915 12.2605 12.9169C12.8909 13.0423 13.5444 12.9779 14.1383 12.7319C14.7321 12.4859 15.2397 12.0694 15.5968 11.5349C15.9539 11.0005 16.1445 10.3721 16.1445 9.72931C16.1436 8.86766 15.8008 8.04158 15.1915 7.4323C14.5823 6.82301 13.7562 6.48029 12.8945 6.47931ZM12.8945 11.3543C12.5731 11.3543 12.259 11.259 11.9917 11.0804C11.7245 10.9019 11.5162 10.6481 11.3932 10.3512C11.2702 10.0542 11.2381 9.72751 11.3008 9.41229C11.3635 9.09707 11.5182 8.80752 11.7455 8.58026C11.9727 8.353 12.2623 8.19823 12.5775 8.13553C12.8927 8.07283 13.2195 8.10501 13.5164 8.228C13.8133 8.351 14.0671 8.55928 14.2457 8.82651C14.4242 9.09374 14.5195 9.40791 14.5195 9.72931C14.519 10.1601 14.3477 10.5732 14.043 10.8778C13.7384 11.1824 13.3254 11.3538 12.8945 11.3543Z" fill="#FF9900"/>
<path d="M19.1398 3.47941C17.5957 1.93569 15.5345 1.01865 13.354 0.905291C11.1735 0.791934 9.02832 1.49029 7.33245 2.86558C5.63658 4.24087 4.51025 6.1956 4.17085 8.3525C3.83146 10.5094 4.30305 12.7156 5.49461 14.5452L11.6344 23.9709C11.7711 24.1806 11.9579 24.3529 12.1779 24.4722C12.398 24.5915 12.6444 24.654 12.8947 24.654C13.145 24.654 13.3914 24.5915 13.6114 24.4722C13.8315 24.3529 14.0183 24.1806 14.1549 23.9709L20.295 14.5452C21.4006 12.8479 21.8892 10.8222 21.6789 8.80756C21.4686 6.79289 20.5722 4.91174 19.1398 3.47941ZM18.9334 13.6582L12.8947 22.9283L6.85595 13.6582C5.00752 10.8206 5.40396 7.02318 7.79861 4.62844C8.46783 3.9592 9.26232 3.42833 10.1367 3.06613C11.0111 2.70394 11.9483 2.51752 12.8947 2.51752C13.8411 2.51752 14.7783 2.70394 15.6527 3.06613C16.5271 3.42833 17.3216 3.9592 17.9908 4.62844C20.3854 7.02318 20.7818 10.8206 18.9334 13.6582Z" fill="#FF9900"/>
</svg>
