<svg width="26" height="19" viewBox="0 0 26 19" fill="none" xmlns="http://www.w3.org/2000/svg">
<path d="M0.829113 2.03617L11.6624 8.41542C12.0264 8.62917 12.4973 8.7305 12.9711 8.7305C13.4449 8.7305 13.9158 8.62917 14.2798 8.41542L25.1131 2.03617C25.8194 1.61975 26.4868 0 25.1911 0H0.752558C-0.543109 0 0.124225 1.61975 0.829113 2.03617ZM25.441 5.52425L14.2798 11.9003C13.7887 12.1822 13.4449 12.2154 12.9711 12.2154C12.4973 12.2154 12.1536 12.1822 11.6624 11.9003C11.1713 11.6185 1.35922 5.98025 0.557558 5.52267C-0.00577539 5.19967 2.33432e-06 5.57808 2.33432e-06 5.86942V17.4167C2.33432e-06 18.0817 0.817558 19 1.44445 19H24.5556C25.1824 19 26 18.0817 26 17.4167V5.871C26 5.57967 26.0058 5.20125 25.441 5.52425Z" fill="#FF9900"/>
</svg>
