<svg width="60" height="75" viewBox="0 0 60 75" fill="none" xmlns="http://www.w3.org/2000/svg">
<circle cx="35.5" cy="28.5" r="20.5" fill="#441D06"/>
<path d="M30.1195 33.814C33.2034 33.814 35.7034 31.314 35.7034 28.2301C35.7034 25.1462 33.2034 22.6462 30.1195 22.6462C27.0356 22.6462 24.5356 25.1462 24.5356 28.2301C24.5356 31.314 27.0356 33.814 30.1195 33.814Z" fill="#FF9900"/>
<path d="M30.1186 0.310791C22.2716 0.310399 14.7416 3.40709 9.16506 8.92782C3.58857 14.4485 0.416361 21.9471 0.337891 29.7937C0.337891 50.1935 26.5822 72.9013 27.699 73.8692C28.3732 74.446 29.2313 74.7629 30.1186 74.7629C31.0059 74.7629 31.864 74.446 32.5383 73.8692C33.8412 72.9013 59.8994 50.1935 59.8994 29.7937C59.8209 21.9471 56.6487 14.4485 51.0722 8.92782C45.4957 3.40709 37.9657 0.310399 30.1186 0.310791ZM30.1186 41.2593C27.5417 41.2593 25.0227 40.4952 22.8801 39.0635C20.7374 37.6319 19.0675 35.597 18.0813 33.2162C17.0952 30.8355 16.8372 28.2158 17.3399 25.6884C17.8426 23.161 19.0835 20.8394 20.9057 19.0173C22.7278 17.1951 25.0494 15.9542 27.5768 15.4515C30.1042 14.9488 32.7239 15.2068 35.1046 16.1929C37.4854 17.1791 39.5203 18.8491 40.9519 20.9917C42.3836 23.1343 43.1477 25.6533 43.1477 28.2302C43.1477 31.6858 41.775 34.9998 39.3316 37.4432C36.8882 39.8866 33.5742 41.2593 30.1186 41.2593Z" fill="#FF9900"/>
</svg>
