<svg width="87" height="87" viewBox="0 0 87 87" fill="none" xmlns="http://www.w3.org/2000/svg">
<path d="M72.6076 24.5197L54.324 6.23613C53.8143 5.72637 53.1261 5.4375 52.4039 5.4375H16.3125C14.8087 5.4375 13.5938 6.65244 13.5938 8.15625V78.8438C13.5938 80.3476 14.8087 81.5625 16.3125 81.5625H70.6875C72.1913 81.5625 73.4062 80.3476 73.4062 78.8438V26.4483C73.4062 25.7262 73.1174 25.0295 72.6076 24.5197ZM67.1361 27.6973H51.1465V11.7076L67.1361 27.6973ZM67.2891 75.4453H19.7109V11.5547H45.3691V29.9062C45.3691 30.8526 45.7451 31.7603 46.4143 32.4295C47.0835 33.0987 47.9911 33.4746 48.9375 33.4746H67.2891V75.4453ZM44.8679 40.1016H42.1321C41.6648 40.1016 41.257 40.4159 41.1466 40.8747L36.924 57.7734L33.0073 40.8917C32.8969 40.4329 32.4891 40.1016 32.0133 40.1016H29.0057C28.8494 40.1018 28.6952 40.1379 28.5551 40.2071C28.415 40.2763 28.2926 40.3767 28.1974 40.5007C28.1022 40.6246 28.0367 40.7687 28.006 40.9219C27.9752 41.0752 27.9801 41.2334 28.0201 41.3845L34.3242 64.8337C34.4432 65.2755 34.851 65.5898 35.3098 65.5898H38.0285C38.4873 65.5898 38.8951 65.284 39.0141 64.8337L43.5 48.0964L47.9859 64.8337C48.1049 65.2755 48.5127 65.5898 48.9715 65.5898H51.6732C52.132 65.5898 52.5398 65.284 52.6588 64.8337L58.9799 41.3845C59.0196 41.2334 59.0242 41.0753 58.9933 40.9222C58.9624 40.7691 58.8969 40.6252 58.8017 40.5013C58.7066 40.3775 58.5844 40.2771 58.4444 40.2078C58.3045 40.1385 58.1505 40.1021 57.9943 40.1016H54.9697C54.4939 40.1016 54.0861 40.4329 53.9757 40.8917L50.0845 57.8074L45.8534 40.8747C45.743 40.4159 45.3352 40.1016 44.8679 40.1016Z" fill="#441D06"/>
</svg>
