<svg width="50" height="47" fill="none" xmlns="http://www.w3.org/2000/svg"><path fill-rule="evenodd" clip-rule="evenodd" d="M45.605 0H4.395A4.4 4.4 0 000 4.395V33.69a4.4 4.4 0 004.395 4.395h4.492v7.324a1.465 1.465 0 002.5 1.036l8.36-8.36h25.858A4.4 4.4 0 0050 33.69V4.395A4.4 4.4 0 0045.605 0zm1.465 33.691c0 .808-.657 1.465-1.465 1.465H19.142c-.389 0-.761.155-1.036.43l-6.289 6.288V36.62c0-.809-.655-1.465-1.464-1.465H4.395A1.467 1.467 0 012.93 33.69V4.395c0-.808.657-1.465 1.465-1.465h41.21c.808 0 1.465.657 1.465 1.465V33.69zM25 5.86c-7.27 0-13.184 5.915-13.184 13.184 0 7.27 5.915 13.184 13.184 13.184 7.27 0 13.184-5.915 13.184-13.184 0-7.27-5.915-13.184-13.184-13.184zm0 23.438c-5.654 0-10.254-4.6-10.254-10.254S19.346 8.789 25 8.789s10.254 4.6 10.254 10.254S30.654 29.297 25 29.297zm3.107-7.146a1.465 1.465 0 012.072 2.071A7.275 7.275 0 0125 26.365a7.275 7.275 0 01-5.179-2.143 1.465 1.465 0 112.072-2.072A4.364 4.364 0 0025 23.436a4.365 4.365 0 003.107-1.284zm-7.502-4.573a1.465 1.465 0 100-2.93 1.465 1.465 0 000 2.93zm10.254-1.465a1.465 1.465 0 11-2.93 0 1.465 1.465 0 012.93 0z" fill="#009"/></svg>