<svg width="55" height="50" fill="none" xmlns="http://www.w3.org/2000/svg"><path d="M22.828 24.97c-.207-.115-.4-.395-17.255-13.364l.668 4.344c.213 1.365-.634 2.68-1.883 2.883-1.432.247-2.525-.974-2.632-2.073L.033 5.625a2.692 2.692 0 01.4-1.88c.353-.543.89-.913 1.497-1.013L12.135.938c1.252-.216 2.43.71 2.629 2.085.2 1.375-.642 2.665-1.894 2.88l-5.467.964C24.1 19.873 24.613 20.333 24.819 20.448c1.141.602 1.623 2.11 1.067 3.359-.474 1.067-1.799 1.858-3.058 1.163zm2.738 4.806c-.157.186-.456.316-16.423 14.555l4.019.458c1.264.142 2.2 1.381 2.047 2.748-.164 1.57-1.535 2.393-2.536 2.211L2.375 48.554c-.61-.065-1.171-.406-1.556-.922a2.61 2.61 0 01-.496-1.843l1.138-11.197c.143-1.373 1.277-2.362 2.545-2.205 1.27.158 2.186 1.386 2.042 2.759l-.607 5.999C21.398 27.08 21.942 26.664 22.099 26.477c.836-1.037 2.3-1.141 3.254-.223.818.782 1.163 2.384.213 3.522zm1.247-8.411c.14-.2.428-.357 15.181-16.076l-4.04-.07c-1.27-.02-2.303-1.164-2.261-2.541.036-1.579 1.335-2.53 2.346-2.446l10.355.2c.613.006 1.2.292 1.625.77.425.476.662 1.118.643 1.787l-.228 11.263c-.032 1.381-1.08 2.476-2.357 2.44-1.277-.034-2.289-1.17-2.257-2.55l.12-6.035c-14.757 15.544-15.266 16.01-15.407 16.211-.75 1.114-2.198 1.358-3.224.536-.877-.7-1.35-2.264-.496-3.489zm3.141 4.767c.216.091.434.349 18.39 11.422l-1.061-4.25c-.337-1.335.385-2.734 1.61-3.073 1.402-.401 2.602.695 2.809 1.777l2.703 10.896a2.713 2.713 0 01-.226 1.914c-.302.578-.802 1.005-1.397 1.17l-9.99 2.894c-1.226.35-2.483-.443-2.807-1.789-.324-1.346.395-2.721 1.622-3.072l5.351-1.553C29.155 31.342 28.602 30.94 28.386 30.848c-1.19-.475-1.808-1.924-1.369-3.226.374-1.114 1.62-2.044 2.937-1.49z" fill="#339"/></svg>